<svg width="422" height="117" viewBox="0 0 422 117" fill="none" xmlns="http://www.w3.org/2000/svg">
<mask id="mask0_13_1199" style="mask-type:luminance" maskUnits="userSpaceOnUse" x="0" y="0" width="118" height="117">
<path d="M91.6257 0H26.0153C11.9236 0 0.5 11.4236 0.5 25.5153V91.1257C0.5 105.217 11.9236 116.641 26.0153 116.641H91.6257C105.717 116.641 117.141 105.217 117.141 91.1257V25.5153C117.141 11.4236 105.717 0 91.6257 0Z" fill="white"/>
</mask>
<g mask="url(#mask0_13_1199)">
<path d="M117.141 0H0.5V116.641H117.141V0Z" fill="white"/>
<g filter="url(#filter0_ii_13_1199)">
<path fill-rule="evenodd" clip-rule="evenodd" d="M117.141 -0.000976562H0.5V14.014C4.1251 14.063 7.7349 14.173 11.3537 14.335C44.067 15.802 90.995 32.272 85.12 69.949C82.981 83.669 75.209 94.604 66.403 100.181C63.019 102.324 59.125 103.342 54.897 103.001C51.633 102.738 47.743 101.371 44.067 99.166C37.299 95.104 34.867 93.084 29.515 87.208C23.762 80.891 28.162 75.363 31.659 73.671C40.615 69.338 55.348 65.662 69.787 75.025C73.171 77.219 75.867 72.342 72.607 70.513C58.845 62.791 40.683 60.699 20.04 66.452C15.156 67.813 8.5005 68.005 4.8109 67.241C3.3811 66.946 1.9386 66.503 0.5 65.908V116.64H117.141V73.302C111.602 74.248 105.631 74.628 99.229 74.348C94.378 74.136 92.535 72.656 91.671 71.528C90.883 70.499 89.551 68.297 90.995 63.068C94.746 49.481 103.841 36.015 117.141 26.685V-0.000976562ZM94.717 80.101C82.309 82.019 88.608 97.638 95.168 99.278C101.034 100.745 111.187 89.126 113.105 84.614C113.728 83.147 113.781 80.665 110.623 80.101C107.464 79.537 100.737 79.171 94.717 80.101Z" fill="url(#paint0_linear_13_1199)"/>
</g>
</g>
<path d="M235.023 89.446C235.023 81.449 237.578 74.903 242.687 69.809C247.797 64.715 254.591 62.168 263.07 62.168C271.55 62.168 278.317 64.715 283.372 69.809C288.481 74.903 291.036 81.449 291.036 89.446C291.036 97.388 288.481 103.906 283.372 109C278.317 114.094 271.55 116.641 263.07 116.641C254.591 116.641 247.797 114.094 242.687 109C237.578 103.906 235.023 97.388 235.023 89.446ZM246.193 89.446C246.193 94.868 247.661 99.25 250.596 102.592C253.531 105.878 257.689 107.521 263.07 107.521C268.506 107.521 272.691 105.851 275.626 102.509C278.507 99.223 279.947 94.868 279.947 89.446C279.947 84.023 278.48 79.641 275.545 76.3C272.664 72.959 268.506 71.288 263.07 71.288C257.744 71.288 253.585 72.986 250.596 76.382C247.661 79.723 246.193 84.078 246.193 89.446Z" fill="#27272A"/>
<path d="M185.43 62.1768H207.961C222.925 62.1768 230.407 67.9648 230.407 79.5408C230.407 85.9778 228.007 90.7498 223.207 93.8558C226.934 94.9278 228.797 98.0058 228.797 103.088V116.641H217.786V103.088C217.786 101.055 217.391 99.6148 216.6 98.7678C215.866 97.9208 214.483 97.4978 212.45 97.4978H196.441V116.641H185.43V62.1768ZM196.441 88.2648H207.961C211.518 88.2648 214.313 87.5308 216.346 86.0628C218.379 84.5378 219.395 82.3638 219.395 79.5408C219.395 74.0628 215.584 71.3248 207.961 71.3248H196.441V88.2648Z" fill="#27272A"/>
<path d="M156.828 62.1768C171.792 62.1768 179.274 67.9648 179.274 79.5408C179.274 84.9048 177.439 89.2528 173.768 92.5848C170.154 95.8598 164.508 97.4978 156.828 97.4978H145.308V116.641H134.297V62.1768H156.828ZM145.308 71.3248V88.2648H156.828C160.385 88.2648 163.181 87.5308 165.213 86.0628C167.246 84.5378 168.263 82.3638 168.263 79.5408C168.263 74.0628 164.451 71.3248 156.828 71.3248H145.308Z" fill="#27272A"/>
<path d="M376.643 0L393.075 25.157L409.423 0H421.789L398.496 34.898V54.464H387.485V34.898L364.191 0H376.643Z" fill="#27272A"/>
<path d="M319.262 0H341.793C356.757 0 364.239 5.788 364.239 17.364C364.239 23.801 361.839 28.573 357.039 31.679C360.766 32.752 362.63 35.829 362.63 40.911V54.464H351.618V40.911C351.618 38.879 351.223 37.439 350.432 36.592C349.698 35.745 348.315 35.321 346.282 35.321H330.273V54.464H319.262V0ZM330.273 26.088H341.793C345.35 26.088 348.145 25.354 350.178 23.886C352.211 22.362 353.228 20.187 353.228 17.364C353.228 11.887 349.416 9.14799 341.793 9.14799H330.273V26.088Z" fill="#27272A"/>
<path d="M256.605 27.278C256.605 19.281 259.188 12.735 264.354 7.64101C269.519 2.54701 276.388 0 284.96 0C293.533 0 300.374 2.54701 305.485 7.64101C310.65 12.735 313.233 19.281 313.233 27.278C313.233 35.22 310.65 41.738 305.485 46.832C300.374 51.926 293.533 54.473 284.96 54.473C276.388 54.473 269.519 51.926 264.354 46.832C259.188 41.738 256.605 35.22 256.605 27.278ZM267.898 27.278C267.898 32.7 269.382 37.082 272.349 40.424C275.316 43.71 279.52 45.353 284.96 45.353C290.456 45.353 294.687 43.683 297.654 40.341C300.567 37.055 302.023 32.7 302.023 27.278C302.023 21.855 300.539 17.473 297.572 14.132C294.659 10.791 290.456 9.12 284.96 9.12C279.575 9.12 275.371 10.818 272.349 14.214C269.382 17.555 267.898 21.91 267.898 27.278Z" fill="#27272A"/>
<path d="M255.069 0V9.14799H226.863V23.801H250.749V33.034H226.863V54.464H215.852V0H255.069Z" fill="#27272A"/>
<path d="M198.618 45.316H198.617V9.14799V0H209.629V9.14799V45.316V54.464H198.618V45.316Z" fill="#27272A"/>
<path d="M134.297 54.464L157.336 0H169.618L192.572 54.464H180.799L177.072 45.231H149.882L146.155 54.464H134.297ZM173.345 35.999L163.519 11.435L153.609 35.999H173.345Z" fill="#27272A"/>
<defs>
<filter id="filter0_ii_13_1199" x="-1.35145" y="-1.85243" width="121.085" height="119.974" filterUnits="userSpaceOnUse" color-interpolation-filters="sRGB">
<feFlood flood-opacity="0" result="BackgroundImageFix"/>
<feBlend mode="normal" in="SourceGraphic" in2="BackgroundImageFix" result="shape"/>
<feColorMatrix in="SourceAlpha" type="matrix" values="0 0 0 0 0 0 0 0 0 0 0 0 0 0 0 0 0 0 127 0" result="hardAlpha"/>
<feOffset dx="2.59203" dy="1.48116"/>
<feGaussianBlur stdDeviation="2.77718"/>
<feComposite in2="hardAlpha" operator="arithmetic" k2="-1" k3="1"/>
<feColorMatrix type="matrix" values="0 0 0 0 1 0 0 0 0 1 0 0 0 0 1 0 0 0 0.25 0"/>
<feBlend mode="normal" in2="shape" result="effect1_innerShadow_13_1199"/>
<feColorMatrix in="SourceAlpha" type="matrix" values="0 0 0 0 0 0 0 0 0 0 0 0 0 0 0 0 0 0 127 0" result="hardAlpha"/>
<feOffset dx="-1.85145" dy="-1.85145"/>
<feGaussianBlur stdDeviation="3.51776"/>
<feComposite in2="hardAlpha" operator="arithmetic" k2="-1" k3="1"/>
<feColorMatrix type="matrix" values="0 0 0 0 0 0 0 0 0 0 0 0 0 0 0 0 0 0 0.1 0"/>
<feBlend mode="normal" in2="effect1_innerShadow_13_1199" result="effect2_innerShadow_13_1199"/>
</filter>
<linearGradient id="paint0_linear_13_1199" x1="17.759" y1="3.94703" x2="112.968" y2="116.64" gradientUnits="userSpaceOnUse">
<stop stop-color="#C4B5FD"/>
<stop offset="1" stop-color="#A78BFA"/>
</linearGradient>
</defs>
</svg>
